<svg width="499" height="503" viewBox="0 0 499 503" fill="none" xmlns="http://www.w3.org/2000/svg">
<path d="M499 249.5C499 387.295 387.295 499 249.5 499C111.705 499 0 387.295 0 249.5C0 111.705 111.705 0 249.5 0C387.295 0 499 111.705 499 249.5ZM74.7063 249.5C74.7063 346.036 152.964 424.294 249.5 424.294C346.036 424.294 424.294 346.036 424.294 249.5C424.294 152.964 346.036 74.7063 249.5 74.7063C152.964 74.7063 74.7063 152.964 74.7063 249.5Z" fill="#316DAA" fill-opacity="0.25"/>
<path d="M149.892 370.308C149.892 370.308 57.2746 341.746 43.1762 431.046L62.086 426.087C62.086 426.087 41.2003 453.211 36.1751 502.582C84.2509 490.212 107.926 465.492 107.926 465.492L105.862 484.927C192.021 457.571 149.892 370.308 149.892 370.308Z" fill="url(#paint0_linear_312_141)"/>
<path d="M149.892 370.308C149.892 370.308 92.1161 352.484 83.4047 408.189L95.1768 405.093C95.1768 405.093 82.155 422.015 79.0221 452.814C109.003 445.04 123.777 429.672 123.777 429.672L122.441 441.799C176.166 424.681 149.892 370.308 149.892 370.308Z" fill="url(#paint1_linear_312_141)"/>
<path d="M213.635 361.977L148.165 304.526L164.176 286.363L229.632 343.815L213.635 361.977Z" fill="url(#paint2_linear_312_141)"/>
<path d="M189.193 203.419C189.193 203.419 131.524 202.613 109.391 227.629C85.5136 254.708 66.342 287.244 52.025 332.957C44.3819 357.33 66.8703 331.261 81.8623 315.79C108.147 288.717 121.894 288.402 148.738 292.878C148.742 292.952 161.261 262.892 189.193 203.419Z" fill="#316DAA" fill-opacity="0.6"/>
<g style="mix-blend-mode:soft-light" opacity="0.33">
<path d="M189.193 203.419C189.193 203.419 131.524 202.613 109.391 227.629C85.5136 254.708 66.342 287.244 52.025 332.957C50.5798 337.528 50.2096 340.33 50.6544 341.768C50.6544 341.768 71.6906 283.71 96.7927 254.361C121.895 225.012 139.194 213.633 189.189 203.345" fill="white"/>
</g>
<path d="M309.264 308.794C309.264 308.794 317.428 365.746 295.3 390.852C271.437 417.93 241.509 441.066 197.866 461.078C174.591 471.753 197.66 446.143 211.122 429.344C234.693 399.877 233.234 386.243 225.354 360.244C225.414 360.24 253.708 344.018 309.264 308.794Z" fill="#316DAA" fill-opacity="0.6"/>
<path d="M477.094 82.0139C482.937 19.5895 469.898 5.76725 469.898 5.76725C469.898 5.76725 454.493 -5.37241 393.182 8.37331C328.419 22.8937 289.334 65.5908 262.74 95.2387C228.328 133.591 173.007 220.412 148.743 292.967L187.275 326.398L225.429 360.239C294.449 326.975 373.685 261.127 407.421 222.188C433.479 192.094 470.939 147.955 477.094 82.0139Z" fill="url(#paint3_linear_312_141)"/>
<path d="M158.503 301.44L187.275 326.398L225.429 360.239C294.449 326.975 373.686 261.127 407.421 222.188C433.494 192.093 470.954 147.954 477.108 81.9981C482.951 19.5737 469.912 5.75146 469.912 5.75146" fill="url(#paint4_linear_312_141)"/>
<g style="mix-blend-mode:soft-light" opacity="0.09">
<path d="M154.198 297.692L219.81 355.27" stroke="black" stroke-width="1.89" stroke-miterlimit="10"/>
</g>
<path d="M148.743 292.967L187.275 326.398L225.429 360.239C240.051 353.1 254.286 345.193 268.073 336.551L166.856 247.744C160.027 262.489 153.981 277.584 148.743 292.967Z" fill="url(#paint5_linear_312_141)"/>
<path style="mix-blend-mode:soft-light" d="M244.486 265.65L225.414 360.24L218.122 356.043L213.635 361.977L188.204 339.66L244.486 265.65Z" fill="url(#paint6_linear_312_141)"/>
<g style="mix-blend-mode:soft-light">
<path d="M340.459 28.5102L463.812 136.768" stroke="black" stroke-width="1.89" stroke-miterlimit="10"/>
</g>
<path d="M469.898 5.76725C469.898 5.76725 454.493 -5.37242 393.182 8.3733C374.732 12.5183 356.975 19.3003 340.459 28.5102L463.812 136.768C470.869 119.256 475.343 100.812 477.094 82.0139C482.937 19.5895 469.898 5.76725 469.898 5.76725Z" fill="#316DAA" fill-opacity="0.6"/>
<mask id="mask0_312_141" style="mask-type:luminance" maskUnits="userSpaceOnUse" x="148" y="1" width="331" height="360">
<path d="M477.094 82.0139C482.937 19.5895 469.898 5.76725 469.898 5.76725C469.898 5.76725 454.493 -5.37241 393.182 8.37331C328.419 22.8937 289.334 65.5908 262.74 95.2387C228.328 133.591 173.007 220.412 148.743 292.967L187.275 326.398L225.429 360.239C294.449 326.975 373.685 261.127 407.421 222.188C433.479 192.094 470.939 147.955 477.094 82.0139Z" fill="white"/>
</mask>
<g mask="url(#mask0_312_141)">
<path d="M322.939 26.277L317.381 32.6745L465.798 161.614L471.356 155.216L322.939 26.277Z" fill="#316DAA" fill-opacity="0.6"/>
<path d="M313.125 40.0874L309.426 44.3449L457.843 173.284L461.542 169.027L313.125 40.0874Z" fill="#316DAA" fill-opacity="0.6"/>
</g>
<g style="mix-blend-mode:soft-light" opacity="0.09">
<path d="M166.84 247.73L268.059 336.552" stroke="black" stroke-width="1.89" stroke-miterlimit="10"/>
</g>
<path d="M243.791 262.269C243.791 262.269 237.95 254.338 189.495 309.3C141.04 364.262 100.051 416.594 104.389 420.4C108.727 424.205 155.523 376.981 203.961 321.99C252.399 267 243.791 262.269 243.791 262.269Z" fill="#316DAA" fill-opacity="0.6"/>
<g style="mix-blend-mode:soft-light" opacity="0.33">
<path d="M243.791 262.269C243.791 262.269 237.95 254.338 189.495 309.3C141.04 364.262 100.051 416.594 104.389 420.4C104.389 420.4 117.566 398.834 153.792 355.307C190.017 311.78 231.688 264.085 243.791 262.269Z" fill="white"/>
</g>
<path style="mix-blend-mode:soft-light" d="M379.804 186.478C382.461 151.079 355.919 120.228 320.52 117.571C285.121 114.914 254.27 141.456 251.612 176.855C248.955 212.254 275.497 243.105 310.897 245.763C346.296 248.42 377.147 221.877 379.804 186.478Z" fill="url(#paint7_linear_312_141)"/>
<path d="M319.086 243.593C354.317 241.378 381.082 211.022 378.868 175.79C376.653 140.559 346.297 113.794 311.065 116.008C275.834 118.223 249.069 148.579 251.283 183.811C253.498 219.042 283.854 245.807 319.086 243.593Z" fill="#D4D4D4"/>
<path d="M319.879 243.541C354.683 241.347 381.118 211.355 378.924 176.551C376.73 141.748 346.738 115.313 311.934 117.507C277.131 119.701 250.696 149.693 252.89 184.496C255.084 219.3 285.076 245.735 319.879 243.541Z" fill="url(#paint8_linear_312_141)"/>
<path d="M318.213 227.976C344.304 226.285 364.085 203.764 362.395 177.672C360.704 151.581 338.183 131.8 312.091 133.491C286 135.181 266.219 157.703 267.91 183.794C269.6 209.885 292.122 229.666 318.213 227.976Z" fill="#316DAA"/>
<mask id="mask1_312_141" style="mask-type:luminance" maskUnits="userSpaceOnUse" x="267" y="133" width="96" height="96">
<path d="M318.213 227.976C344.304 226.285 364.085 203.764 362.395 177.672C360.704 151.581 338.183 131.8 312.091 133.491C286 135.181 266.219 157.703 267.91 183.794C269.6 209.885 292.122 229.666 318.213 227.976Z" fill="white"/>
</mask>
<g mask="url(#mask1_312_141)">
<path opacity="0.47" d="M356.449 140.714L254.48 193.247L263.008 209.8L364.977 157.267L356.449 140.714Z" fill="url(#paint9_linear_312_141)"/>
<path opacity="0.47" d="M368.47 166.397L266.5 218.93L270.791 227.26L372.761 174.726L368.47 166.397Z" fill="url(#paint10_linear_312_141)"/>
</g>
<path d="M272.727 146.686C272.808 146.157 272.731 145.616 272.504 145.132C272.278 144.647 271.912 144.241 271.455 143.964C270.997 143.687 270.468 143.553 269.933 143.578C269.399 143.602 268.884 143.785 268.454 144.102C268.023 144.42 267.697 144.858 267.516 145.362C267.335 145.865 267.308 146.411 267.437 146.929C267.567 147.448 267.848 147.917 268.244 148.276C268.64 148.635 269.134 148.869 269.664 148.947C270.013 149 270.37 148.984 270.714 148.9C271.057 148.815 271.38 148.663 271.665 148.453C271.95 148.243 272.19 147.979 272.372 147.675C272.554 147.372 272.675 147.036 272.727 146.686Z" fill="#A3A3A3"/>
<path d="M264.256 161.976C264.334 161.447 264.254 160.907 264.025 160.424C263.797 159.941 263.43 159.537 262.972 159.262C262.513 158.988 261.984 158.856 261.45 158.882C260.916 158.909 260.402 159.093 259.974 159.412C259.545 159.731 259.22 160.169 259.041 160.673C258.861 161.176 258.835 161.721 258.966 162.239C259.096 162.758 259.378 163.225 259.774 163.583C260.171 163.942 260.665 164.174 261.193 164.251C261.544 164.305 261.902 164.288 262.246 164.202C262.59 164.117 262.914 163.963 263.199 163.752C263.484 163.54 263.724 163.274 263.905 162.969C264.086 162.665 264.206 162.327 264.256 161.976Z" fill="#A3A3A3"/>
<path d="M282.717 135.804C282.796 135.275 282.715 134.736 282.487 134.253C282.258 133.77 281.892 133.365 281.433 133.091C280.975 132.816 280.445 132.684 279.911 132.711C279.378 132.737 278.864 132.922 278.435 133.24C278.006 133.559 277.682 133.998 277.502 134.501C277.323 135.005 277.297 135.55 277.427 136.068C277.558 136.586 277.839 137.054 278.236 137.412C278.632 137.77 279.126 138.003 279.655 138.08C280.363 138.184 281.083 138.002 281.657 137.575C282.231 137.149 282.612 136.512 282.717 135.804Z" fill="#A3A3A3"/>
<path d="M263.755 194.052C263.39 193.661 262.917 193.387 262.396 193.265C261.875 193.144 261.33 193.179 260.829 193.368C260.329 193.557 259.895 193.89 259.584 194.325C259.273 194.76 259.099 195.278 259.082 195.813C259.066 196.347 259.209 196.875 259.493 197.328C259.777 197.782 260.189 198.14 260.677 198.359C261.165 198.578 261.707 198.647 262.235 198.557C262.762 198.467 263.251 198.223 263.639 197.855C263.897 197.613 264.105 197.323 264.25 197.001C264.396 196.679 264.476 196.331 264.487 195.977C264.498 195.624 264.439 195.272 264.313 194.942C264.188 194.611 263.998 194.309 263.755 194.052Z" fill="#A3A3A3"/>
<path d="M270.49 210.18C270.124 209.791 269.651 209.519 269.131 209.4C268.61 209.28 268.066 209.317 267.567 209.506C267.067 209.696 266.635 210.029 266.325 210.464C266.015 210.899 265.841 211.416 265.825 211.95C265.809 212.484 265.952 213.01 266.235 213.463C266.518 213.916 266.929 214.275 267.416 214.494C267.903 214.713 268.444 214.783 268.971 214.695C269.498 214.606 269.986 214.364 270.375 213.998C270.635 213.756 270.845 213.465 270.992 213.141C271.138 212.817 271.219 212.468 271.23 212.113C271.241 211.758 271.181 211.404 271.054 211.072C270.927 210.74 270.735 210.437 270.49 210.18Z" fill="#A3A3A3"/>
<path d="M261.635 176.87C261.271 176.478 260.799 176.203 260.279 176.079C259.759 175.955 259.213 175.989 258.712 176.176C258.211 176.363 257.776 176.694 257.464 177.128C257.151 177.562 256.974 178.079 256.956 178.614C256.938 179.148 257.078 179.676 257.36 180.131C257.642 180.585 258.053 180.945 258.54 181.166C259.028 181.387 259.569 181.458 260.097 181.371C260.625 181.283 261.114 181.041 261.504 180.674C262.024 180.186 262.329 179.512 262.354 178.799C262.378 178.087 262.12 177.393 261.635 176.87Z" fill="#A3A3A3"/>
<path d="M294.317 230.665C293.784 230.712 293.278 230.916 292.861 231.251C292.445 231.586 292.137 232.038 291.977 232.548C291.817 233.058 291.812 233.604 291.963 234.117C292.114 234.63 292.414 235.087 292.824 235.429C293.235 235.771 293.738 235.984 294.27 236.041C294.801 236.097 295.338 235.994 295.811 235.745C296.284 235.496 296.673 235.113 296.928 234.643C297.183 234.173 297.293 233.638 297.243 233.105C297.177 232.394 296.832 231.738 296.284 231.281C295.735 230.824 295.028 230.602 294.317 230.665Z" fill="#A3A3A3"/>
<path d="M311.184 235.275C310.651 235.322 310.145 235.526 309.728 235.861C309.312 236.196 309.004 236.648 308.844 237.158C308.684 237.668 308.68 238.214 308.83 238.727C308.981 239.24 309.281 239.697 309.692 240.039C310.102 240.381 310.605 240.594 311.137 240.651C311.669 240.707 312.205 240.604 312.678 240.355C313.151 240.106 313.54 239.723 313.795 239.253C314.05 238.783 314.16 238.248 314.11 237.715C314.044 237.004 313.699 236.348 313.151 235.891C312.602 235.434 311.895 235.212 311.184 235.275Z" fill="#A3A3A3"/>
<path d="M279.451 221.78C278.919 221.83 278.414 222.036 278 222.373C277.585 222.71 277.28 223.162 277.122 223.672C276.965 224.182 276.962 224.728 277.115 225.239C277.267 225.751 277.568 226.206 277.979 226.547C278.39 226.888 278.893 227.1 279.424 227.155C279.955 227.21 280.49 227.106 280.963 226.857C281.435 226.608 281.823 226.225 282.077 225.755C282.332 225.286 282.441 224.751 282.392 224.219C282.361 223.865 282.26 223.521 282.095 223.206C281.93 222.891 281.704 222.612 281.431 222.385C281.157 222.158 280.841 221.988 280.501 221.884C280.162 221.78 279.804 221.745 279.451 221.78Z" fill="#A3A3A3"/>
<path d="M342.3 228.733C342.075 229.028 341.913 229.367 341.824 229.728C341.735 230.089 341.722 230.464 341.785 230.83C341.848 231.196 341.986 231.545 342.19 231.856C342.394 232.166 342.659 232.431 342.971 232.634C343.282 232.837 343.631 232.974 343.998 233.035C344.364 233.097 344.739 233.083 345.1 232.993C345.46 232.903 345.798 232.74 346.093 232.513C346.387 232.287 346.632 232.002 346.811 231.677C347.14 231.08 347.232 230.381 347.067 229.719C346.902 229.058 346.493 228.483 345.922 228.111C345.351 227.738 344.661 227.595 343.989 227.711C343.317 227.826 342.714 228.192 342.3 228.733Z" fill="#A3A3A3"/>
<path d="M355.546 218.538C355.254 218.986 355.102 219.51 355.108 220.045C355.115 220.579 355.28 221.099 355.582 221.54C355.884 221.98 356.31 222.321 356.806 222.519C357.302 222.718 357.846 222.764 358.369 222.654C358.892 222.543 359.37 222.279 359.742 221.897C360.115 221.514 360.367 221.03 360.464 220.505C360.562 219.979 360.501 219.437 360.29 218.946C360.079 218.455 359.728 218.038 359.28 217.747C358.679 217.357 357.949 217.221 357.249 217.37C356.549 217.518 355.936 217.939 355.546 218.538Z" fill="#A3A3A3"/>
<path d="M326.267 234.297C325.975 234.745 325.823 235.269 325.83 235.803C325.836 236.337 326.001 236.858 326.303 237.298C326.605 237.739 327.031 238.08 327.527 238.278C328.024 238.476 328.567 238.523 329.09 238.412C329.613 238.301 330.091 238.038 330.463 237.655C330.836 237.273 331.088 236.788 331.185 236.263C331.283 235.738 331.222 235.195 331.011 234.705C330.8 234.214 330.449 233.796 330.001 233.505C329.399 233.119 328.67 232.986 327.971 233.134C327.272 233.283 326.66 233.7 326.267 234.297Z" fill="#A3A3A3"/>
<path d="M368.261 190.753C368.418 191.26 368.723 191.709 369.136 192.043C369.549 192.376 370.051 192.58 370.58 192.629C371.108 192.677 371.64 192.568 372.106 192.315C372.573 192.061 372.954 191.675 373.201 191.206C373.449 190.736 373.551 190.203 373.496 189.675C373.441 189.147 373.23 188.648 372.891 188.239C372.552 187.831 372.099 187.532 371.591 187.38C371.082 187.229 370.539 187.232 370.032 187.389C369.353 187.602 368.786 188.076 368.454 188.706C368.122 189.336 368.053 190.072 368.261 190.753Z" fill="#A3A3A3"/>
<path d="M369.106 174.664C369.265 175.175 369.571 175.626 369.987 175.962C370.402 176.298 370.908 176.503 371.44 176.551C371.973 176.6 372.507 176.489 372.976 176.233C373.446 175.978 373.828 175.589 374.076 175.115C374.324 174.642 374.426 174.106 374.37 173.574C374.313 173.043 374.099 172.54 373.757 172.13C373.414 171.72 372.958 171.421 372.445 171.271C371.932 171.12 371.386 171.125 370.876 171.285C370.194 171.499 369.624 171.975 369.292 172.609C368.96 173.242 368.893 173.981 369.106 174.664Z" fill="#A3A3A3"/>
<path d="M363.738 207.077C363.842 207.414 364.012 207.728 364.237 208C364.463 208.271 364.74 208.496 365.052 208.661C365.365 208.825 365.707 208.926 366.058 208.959C366.41 208.991 366.765 208.953 367.102 208.848C367.614 208.692 368.068 208.387 368.406 207.973C368.744 207.558 368.952 207.052 369.002 206.519C369.052 205.987 368.943 205.451 368.688 204.98C368.434 204.51 368.045 204.125 367.572 203.876C367.098 203.627 366.561 203.524 366.029 203.58C365.497 203.636 364.993 203.85 364.583 204.192C364.172 204.535 363.872 204.993 363.722 205.506C363.571 206.02 363.577 206.566 363.738 207.077Z" fill="#A3A3A3"/>
<path d="M358.077 145.745C358.734 145.945 359.442 145.887 360.057 145.583C360.673 145.28 361.15 144.753 361.391 144.111C361.632 143.468 361.62 142.758 361.356 142.124C361.093 141.49 360.598 140.981 359.972 140.699C359.635 140.547 359.271 140.466 358.902 140.461C358.533 140.456 358.167 140.526 357.826 140.668C357.485 140.81 357.177 141.02 356.92 141.285C356.664 141.551 356.465 141.866 356.335 142.212C356.205 142.557 356.147 142.926 356.166 143.295C356.184 143.663 356.278 144.025 356.441 144.356C356.604 144.687 356.834 144.981 357.115 145.22C357.396 145.459 357.724 145.637 358.077 145.745Z" fill="#A3A3A3"/>
<path d="M345.122 134.339C345.794 134.586 346.536 134.559 347.187 134.262C347.838 133.966 348.346 133.424 348.6 132.756C348.787 132.255 348.821 131.711 348.699 131.191C348.577 130.671 348.303 130.2 347.912 129.835C347.522 129.471 347.032 129.231 346.505 129.145C345.978 129.059 345.437 129.131 344.951 129.352C344.465 129.574 344.056 129.934 343.775 130.388C343.493 130.842 343.353 131.369 343.371 131.903C343.39 132.437 343.566 132.953 343.878 133.386C344.189 133.82 344.622 134.152 345.122 134.339Z" fill="#A3A3A3"/>
<path d="M366.109 160.315C366.606 160.502 367.147 160.537 367.664 160.417C368.181 160.296 368.651 160.025 369.014 159.637C369.377 159.25 369.617 158.763 369.703 158.239C369.79 157.716 369.719 157.178 369.5 156.694C369.281 156.21 368.924 155.802 368.473 155.522C368.023 155.241 367.499 155.1 366.968 155.117C366.438 155.134 365.924 155.308 365.492 155.617C365.06 155.925 364.729 156.355 364.541 156.852C364.293 157.519 364.319 158.258 364.613 158.906C364.906 159.555 365.444 160.061 366.109 160.315Z" fill="#A3A3A3"/>
<path d="M314.267 124.486C314.573 123.026 313.637 121.595 312.177 121.289C310.718 120.983 309.286 121.919 308.981 123.378C308.675 124.838 309.61 126.269 311.07 126.575C312.53 126.881 313.961 125.946 314.267 124.486Z" fill="#A3A3A3"/>
<path d="M296.474 130.152C296.927 129.878 297.289 129.475 297.514 128.995C297.739 128.515 297.817 127.98 297.738 127.456C297.659 126.932 297.427 126.443 297.071 126.05C296.714 125.658 296.25 125.38 295.736 125.251C295.222 125.122 294.681 125.148 294.182 125.325C293.683 125.503 293.247 125.824 292.93 126.249C292.613 126.674 292.429 127.183 292.4 127.712C292.372 128.241 292.501 128.767 292.771 129.223C293.139 129.837 293.736 130.28 294.43 130.454C295.124 130.628 295.86 130.52 296.474 130.152Z" fill="#A3A3A3"/>
<path d="M331.707 126.276C332.222 124.876 331.505 123.324 330.106 122.809C328.706 122.294 327.154 123.011 326.638 124.411C326.123 125.81 326.841 127.363 328.24 127.878C329.64 128.393 331.192 127.676 331.707 126.276Z" fill="#A3A3A3"/>
<path d="M272.142 146.153C272.223 145.624 272.146 145.083 271.919 144.599C271.693 144.114 271.328 143.708 270.87 143.431C270.412 143.155 269.883 143.02 269.348 143.045C268.814 143.069 268.299 143.252 267.869 143.569C267.439 143.887 267.112 144.325 266.931 144.829C266.75 145.332 266.723 145.878 266.853 146.396C266.982 146.915 267.263 147.384 267.659 147.743C268.055 148.102 268.549 148.336 269.079 148.414C269.428 148.467 269.785 148.451 270.129 148.367C270.472 148.282 270.795 148.13 271.08 147.92C271.365 147.71 271.605 147.446 271.787 147.142C271.969 146.839 272.09 146.503 272.142 146.153Z" fill="#D4D4D4"/>
<path d="M263.656 161.443C263.734 160.915 263.654 160.375 263.425 159.892C263.197 159.409 262.83 159.005 262.372 158.73C261.913 158.456 261.384 158.324 260.85 158.35C260.316 158.377 259.803 158.561 259.374 158.88C258.945 159.199 258.62 159.637 258.441 160.141C258.261 160.644 258.235 161.189 258.366 161.707C258.496 162.226 258.778 162.693 259.174 163.051C259.571 163.41 260.065 163.642 260.594 163.719C260.944 163.773 261.302 163.756 261.646 163.67C261.991 163.585 262.314 163.431 262.599 163.22C262.884 163.008 263.124 162.742 263.305 162.437C263.487 162.132 263.606 161.795 263.656 161.443Z" fill="#D4D4D4"/>
<path d="M282.121 135.332C282.199 134.803 282.119 134.263 281.891 133.78C281.662 133.297 281.295 132.893 280.837 132.618C280.378 132.344 279.849 132.212 279.315 132.238C278.781 132.265 278.268 132.449 277.839 132.768C277.41 133.087 277.085 133.525 276.906 134.029C276.726 134.532 276.7 135.077 276.831 135.595C276.962 136.114 277.243 136.581 277.64 136.94C278.036 137.298 278.53 137.53 279.059 137.608C279.767 137.711 280.486 137.53 281.061 137.103C281.635 136.676 282.016 136.039 282.121 135.332Z" fill="#D4D4D4"/>
<path d="M263.155 193.52C262.79 193.129 262.317 192.855 261.796 192.733C261.275 192.611 260.73 192.647 260.229 192.836C259.729 193.024 259.295 193.358 258.984 193.793C258.673 194.228 258.499 194.746 258.482 195.281C258.466 195.815 258.609 196.343 258.893 196.796C259.177 197.25 259.589 197.608 260.077 197.827C260.565 198.046 261.107 198.115 261.635 198.025C262.162 197.935 262.651 197.691 263.039 197.323C263.297 197.081 263.505 196.791 263.65 196.469C263.796 196.147 263.876 195.799 263.887 195.445C263.898 195.092 263.839 194.74 263.713 194.41C263.588 194.079 263.398 193.777 263.155 193.52Z" fill="#D4D4D4"/>
<path d="M269.965 209.643C269.599 209.254 269.126 208.983 268.605 208.863C268.085 208.743 267.54 208.78 267.041 208.97C266.542 209.159 266.11 209.493 265.8 209.928C265.49 210.362 265.316 210.88 265.3 211.413C265.284 211.947 265.426 212.474 265.71 212.927C265.993 213.379 266.404 213.738 266.891 213.957C267.378 214.177 267.919 214.246 268.446 214.158C268.972 214.07 269.461 213.827 269.85 213.461C270.11 213.219 270.32 212.928 270.466 212.605C270.613 212.281 270.694 211.931 270.705 211.576C270.716 211.221 270.656 210.867 270.529 210.536C270.402 210.204 270.21 209.9 269.965 209.643Z" fill="#D4D4D4"/>
<path d="M261.035 176.338C260.672 175.946 260.2 175.67 259.679 175.547C259.159 175.423 258.613 175.457 258.112 175.644C257.611 175.83 257.177 176.162 256.864 176.596C256.551 177.03 256.375 177.547 256.356 178.081C256.338 178.616 256.479 179.144 256.761 179.598C257.043 180.053 257.453 180.413 257.94 180.634C258.428 180.855 258.969 180.926 259.497 180.838C260.025 180.751 260.515 180.509 260.904 180.142C261.424 179.654 261.73 178.98 261.754 178.267C261.779 177.554 261.52 176.861 261.035 176.338Z" fill="#D4D4D4"/>
<path d="M293.717 230.133C293.184 230.18 292.678 230.384 292.261 230.719C291.845 231.054 291.537 231.506 291.377 232.016C291.217 232.526 291.213 233.072 291.363 233.585C291.514 234.098 291.814 234.555 292.225 234.897C292.635 235.239 293.138 235.452 293.67 235.509C294.202 235.565 294.738 235.462 295.211 235.213C295.684 234.964 296.073 234.581 296.328 234.111C296.583 233.641 296.693 233.106 296.643 232.573C296.577 231.862 296.232 231.206 295.684 230.749C295.136 230.292 294.428 230.07 293.717 230.133Z" fill="#D4D4D4"/>
<path d="M310.584 234.743C310.052 234.79 309.545 234.994 309.128 235.329C308.712 235.664 308.404 236.115 308.244 236.626C308.085 237.136 308.08 237.682 308.231 238.195C308.381 238.708 308.681 239.164 309.092 239.507C309.502 239.849 310.005 240.062 310.537 240.118C311.069 240.175 311.605 240.072 312.078 239.823C312.552 239.574 312.94 239.191 313.195 238.721C313.45 238.251 313.56 237.716 313.51 237.183C313.444 236.472 313.099 235.816 312.551 235.359C312.003 234.902 311.295 234.68 310.584 234.743Z" fill="#D4D4D4"/>
<path d="M278.85 221.233C278.318 221.283 277.813 221.489 277.399 221.826C276.985 222.163 276.679 222.615 276.522 223.125C276.364 223.635 276.361 224.181 276.514 224.692C276.666 225.204 276.967 225.659 277.378 226C277.789 226.341 278.292 226.553 278.823 226.608C279.354 226.663 279.89 226.559 280.362 226.31C280.834 226.061 281.222 225.678 281.477 225.208C281.731 224.739 281.84 224.204 281.791 223.673C281.76 223.318 281.659 222.974 281.495 222.659C281.33 222.344 281.104 222.065 280.83 221.838C280.557 221.611 280.241 221.441 279.901 221.337C279.561 221.233 279.204 221.198 278.85 221.233Z" fill="#D4D4D4"/>
<path d="M341.7 228.201C341.475 228.496 341.313 228.835 341.224 229.196C341.135 229.556 341.122 229.932 341.185 230.298C341.248 230.664 341.386 231.013 341.59 231.324C341.794 231.634 342.06 231.899 342.371 232.102C342.682 232.305 343.032 232.442 343.398 232.503C343.764 232.565 344.139 232.551 344.5 232.461C344.86 232.371 345.198 232.208 345.493 231.981C345.787 231.755 346.032 231.47 346.211 231.145C346.54 230.548 346.632 229.849 346.467 229.187C346.302 228.526 345.893 227.951 345.322 227.579C344.751 227.206 344.061 227.063 343.389 227.179C342.717 227.294 342.114 227.659 341.7 228.201Z" fill="#D4D4D4"/>
<path d="M354.946 218.006C354.654 218.454 354.502 218.978 354.509 219.512C354.515 220.047 354.68 220.567 354.982 221.007C355.284 221.448 355.711 221.789 356.207 221.987C356.703 222.186 357.246 222.232 357.769 222.121C358.292 222.011 358.77 221.747 359.143 221.365C359.516 220.982 359.767 220.498 359.864 219.973C359.962 219.447 359.901 218.905 359.69 218.414C359.48 217.923 359.128 217.506 358.68 217.215C358.08 216.825 357.349 216.689 356.649 216.838C355.949 216.986 355.336 217.407 354.946 218.006Z" fill="#D4D4D4"/>
<path d="M325.667 233.765C325.375 234.213 325.223 234.737 325.23 235.271C325.236 235.805 325.401 236.325 325.703 236.766C326.005 237.207 326.432 237.548 326.928 237.746C327.424 237.944 327.967 237.991 328.49 237.88C329.013 237.769 329.491 237.506 329.864 237.123C330.237 236.741 330.488 236.256 330.585 235.731C330.683 235.206 330.622 234.663 330.411 234.173C330.201 233.682 329.849 233.264 329.401 232.973C328.799 232.587 328.07 232.454 327.371 232.602C326.672 232.751 326.06 233.168 325.667 233.765Z" fill="#D4D4D4"/>
<path d="M367.661 190.221C367.819 190.728 368.123 191.177 368.536 191.51C368.949 191.844 369.451 192.048 369.98 192.097C370.509 192.145 371.04 192.036 371.506 191.783C371.973 191.529 372.354 191.143 372.601 190.674C372.849 190.204 372.951 189.671 372.896 189.143C372.841 188.615 372.63 188.115 372.291 187.707C371.952 187.298 371.5 187 370.991 186.848C370.482 186.697 369.939 186.7 369.432 186.856C368.753 187.07 368.186 187.544 367.854 188.174C367.522 188.804 367.453 189.54 367.661 190.221Z" fill="#D4D4D4"/>
<path d="M368.506 174.132C368.665 174.643 368.971 175.094 369.387 175.43C369.802 175.766 370.308 175.971 370.84 176.019C371.373 176.068 371.907 175.957 372.376 175.701C372.846 175.446 373.228 175.056 373.476 174.583C373.724 174.11 373.827 173.574 373.77 173.042C373.713 172.511 373.499 172.008 373.157 171.598C372.814 171.188 372.358 170.889 371.845 170.739C371.332 170.588 370.786 170.593 370.276 170.753C369.594 170.967 369.024 171.443 368.692 172.076C368.36 172.71 368.293 173.449 368.506 174.132Z" fill="#D4D4D4"/>
<path d="M363.138 206.545C363.242 206.882 363.412 207.196 363.637 207.468C363.863 207.739 364.14 207.964 364.452 208.128C364.765 208.293 365.107 208.394 365.459 208.427C365.81 208.459 366.165 208.421 366.502 208.316C367.014 208.16 367.468 207.855 367.806 207.441C368.144 207.026 368.352 206.52 368.402 205.987C368.452 205.455 368.343 204.919 368.089 204.448C367.834 203.978 367.445 203.593 366.972 203.344C366.498 203.095 365.961 202.992 365.429 203.048C364.897 203.104 364.394 203.317 363.983 203.66C363.572 204.003 363.272 204.461 363.122 204.974C362.971 205.488 362.977 206.034 363.138 206.545Z" fill="#D4D4D4"/>
<path d="M357.477 145.213C358.134 145.413 358.842 145.355 359.457 145.051C360.073 144.748 360.55 144.221 360.791 143.579C361.033 142.936 361.02 142.226 360.757 141.592C360.493 140.958 359.998 140.449 359.372 140.167C359.036 140.015 358.671 139.934 358.302 139.929C357.933 139.924 357.567 139.994 357.226 140.136C356.885 140.278 356.577 140.488 356.32 140.753C356.064 141.019 355.865 141.334 355.735 141.68C355.605 142.025 355.548 142.394 355.566 142.763C355.584 143.131 355.678 143.492 355.841 143.824C356.004 144.155 356.234 144.449 356.515 144.688C356.796 144.927 357.124 145.105 357.477 145.213Z" fill="#D4D4D4"/>
<path d="M347.973 132.322C348.552 130.948 347.907 129.364 346.532 128.785C345.158 128.207 343.574 128.852 342.995 130.226C342.417 131.601 343.062 133.184 344.436 133.763C345.811 134.342 347.395 133.697 347.973 132.322Z" fill="#D4D4D4"/>
<path d="M365.509 159.783C366.008 159.97 366.55 160.005 367.068 159.883C367.587 159.761 368.057 159.487 368.419 159.098C368.782 158.708 369.02 158.219 369.104 157.693C369.188 157.168 369.114 156.629 368.892 156.146C368.669 155.662 368.308 155.256 367.854 154.978C367.4 154.7 366.873 154.563 366.341 154.585C365.81 154.607 365.296 154.787 364.867 155.101C364.437 155.416 364.111 155.85 363.929 156.351C363.691 157.016 363.723 157.748 364.018 158.39C364.314 159.031 364.849 159.532 365.509 159.783Z" fill="#D4D4D4"/>
<path d="M313.641 123.935C313.947 122.476 313.011 121.044 311.552 120.738C310.092 120.433 308.661 121.368 308.355 122.828C308.049 124.288 308.984 125.719 310.444 126.025C311.904 126.331 313.335 125.395 313.641 123.935Z" fill="#D4D4D4"/>
<path d="M295.874 129.62C296.327 129.346 296.689 128.943 296.914 128.463C297.139 127.983 297.217 127.448 297.138 126.924C297.059 126.4 296.827 125.91 296.471 125.518C296.115 125.126 295.65 124.847 295.136 124.718C294.622 124.589 294.081 124.615 293.582 124.793C293.083 124.971 292.647 125.292 292.33 125.717C292.013 126.142 291.829 126.651 291.801 127.18C291.772 127.709 291.901 128.235 292.171 128.691C292.539 129.305 293.136 129.748 293.83 129.922C294.525 130.096 295.26 129.988 295.874 129.62Z" fill="#D4D4D4"/>
<path d="M331.138 125.766C331.653 124.366 330.936 122.814 329.536 122.299C328.136 121.784 326.584 122.501 326.069 123.9C325.554 125.3 326.271 126.852 327.671 127.367C329.071 127.883 330.623 127.165 331.138 125.766Z" fill="#D4D4D4"/>
<path d="M270.927 143.68L267.591 147.442L267.992 147.798L271.329 144.037L270.927 143.68Z" fill="#B9B9B9"/>
<path d="M262.457 158.986L259.12 162.748L259.522 163.104L262.859 159.343L262.457 158.986Z" fill="#B9B9B9"/>
<path d="M280.93 132.881L277.594 136.643L277.996 136.999L281.332 133.238L280.93 132.881Z" fill="#B9B9B9"/>
<path d="M262.655 193.296L259.319 197.057L259.721 197.414L263.057 193.652L262.655 193.296Z" fill="#B9B9B9"/>
<path d="M269.402 209.435L266.065 213.197L266.467 213.553L269.804 209.792L269.402 209.435Z" fill="#B9B9B9"/>
<path d="M260.519 176.122L257.182 179.884L257.584 180.24L260.92 176.479L260.519 176.122Z" fill="#B9B9B9"/>
<path d="M295.425 230.77L292.088 234.531L292.49 234.888L295.827 231.126L295.425 230.77Z" fill="#B9B9B9"/>
<path d="M312.292 235.369L308.956 239.13L309.357 239.487L312.694 235.725L312.292 235.369Z" fill="#B9B9B9"/>
<path d="M280.564 221.858L277.227 225.62L277.629 225.976L280.966 222.215L280.564 221.858Z" fill="#B9B9B9"/>
<path d="M345.434 227.617L342.097 231.379L342.499 231.736L345.836 227.974L345.434 227.617Z" fill="#B9B9B9"/>
<path d="M358.674 217.404L355.337 221.166L355.739 221.522L359.075 217.761L358.674 217.404Z" fill="#B9B9B9"/>
<path d="M329.396 233.172L326.06 236.934L326.462 237.29L329.798 233.528L329.396 233.172Z" fill="#B9B9B9"/>
<path d="M371.695 187.374L368.359 191.135L368.761 191.492L372.097 187.73L371.695 187.374Z" fill="#B9B9B9"/>
<path d="M372.548 171.27L369.211 175.032L369.613 175.388L372.95 171.626L372.548 171.27Z" fill="#B9B9B9"/>
<path d="M367.165 203.697L363.829 207.459L364.231 207.815L367.567 204.054L367.165 203.697Z" fill="#B9B9B9"/>
<path d="M359.883 140.63L356.546 144.391L356.948 144.748L360.285 140.986L359.883 140.63Z" fill="#B9B9B9"/>
<path d="M346.935 129.216L343.598 132.978L344 133.334L347.337 129.573L346.935 129.216Z" fill="#B9B9B9"/>
<path d="M367.926 155.205L364.59 158.966L364.992 159.323L368.328 155.561L367.926 155.205Z" fill="#B9B9B9"/>
<path d="M312.475 121.332L309.139 125.094L309.54 125.45L312.877 121.688L312.475 121.332Z" fill="#B9B9B9"/>
<path d="M295.963 125.244L292.627 129.005L293.029 129.362L296.365 125.6L295.963 125.244Z" fill="#B9B9B9"/>
<path d="M330.033 122.752L326.696 126.514L327.098 126.87L330.435 123.109L330.033 122.752Z" fill="#B9B9B9"/>
<g style="mix-blend-mode:soft-light" opacity="0.33">
<path d="M469.898 5.76725C469.898 5.76725 454.493 -5.37241 393.182 8.37331C328.419 22.8937 289.334 65.5908 262.74 95.2387C228.328 133.591 173.007 220.412 148.743 292.967C148.743 292.967 263.795 9.02161 469.898 5.76725Z" fill="white"/>
</g>
<g style="mix-blend-mode:soft-light" opacity="0.33">
<path d="M156.717 299.828L150.592 306.622L148.165 304.526L154.198 297.692L156.717 299.828Z" fill="white"/>
</g>
<path style="mix-blend-mode:soft-light" d="M225.414 360.24L231.727 378.8C231.727 378.8 280.725 350.89 309.264 308.794C309.264 308.794 255.39 345.651 225.414 360.24Z" fill="url(#paint11_linear_312_141)"/>
<g style="mix-blend-mode:soft-light" opacity="0.33">
<path d="M207.085 437.298C221.693 421.163 226.637 406.129 227.467 403.269C227.002 404.562 226.443 405.82 225.794 407.031C221.799 415.009 216.89 422.496 211.167 429.341C202.462 440.221 189.775 454.746 188.148 460.778C187.973 461.209 187.931 461.682 188.027 462.137C188.124 462.593 188.354 463.008 188.689 463.331C188.689 463.331 190.862 455.189 207.085 437.298Z" fill="white"/>
</g>
<defs>
<linearGradient id="paint0_linear_312_141" x1="3.47109" y1="530.533" x2="148.544" y2="376.502" gradientUnits="userSpaceOnUse">
<stop stop-color="#FF8533"/>
<stop offset="1" stop-color="#FFD052"/>
</linearGradient>
<linearGradient id="paint1_linear_312_141" x1="69.809" y1="460.705" x2="158.993" y2="361.796" gradientUnits="userSpaceOnUse">
<stop stop-color="#FFD052"/>
<stop offset="1" stop-color="#FFE9AE"/>
</linearGradient>
<linearGradient id="paint2_linear_312_141" x1="243.977" y1="403.162" x2="146.572" y2="263.457" gradientUnits="userSpaceOnUse">
<stop stop-color="#767B7F"/>
<stop offset="1" stop-color="#A3A3A3"/>
</linearGradient>
<linearGradient id="paint3_linear_312_141" x1="285.994" y1="101.917" x2="406.047" y2="344.028" gradientUnits="userSpaceOnUse">
<stop stop-color="#EEF4FA"/>
<stop offset="1" stop-color="#CDDEED"/>
</linearGradient>
<linearGradient id="paint4_linear_312_141" x1="302.001" y1="128.596" x2="403.847" y2="333.995" gradientUnits="userSpaceOnUse">
<stop stop-color="#EEF4FA"/>
<stop offset="1" stop-color="#CDDEED"/>
</linearGradient>
<linearGradient id="paint5_linear_312_141" x1="140.283" y1="240.293" x2="242.228" y2="351.745" gradientUnits="userSpaceOnUse">
<stop stop-color="#C7C7C7"/>
<stop offset="1" stop-color="#A3A3A3"/>
</linearGradient>
<linearGradient id="paint6_linear_312_141" x1="212.78" y1="293.542" x2="235.788" y2="352.28" gradientUnits="userSpaceOnUse">
<stop stop-color="#1D262D"/>
<stop offset="1" stop-color="#1D262D" stop-opacity="0"/>
</linearGradient>
<linearGradient id="paint7_linear_312_141" x1="329.569" y1="206.699" x2="374.805" y2="288.425" gradientUnits="userSpaceOnUse">
<stop stop-color="#1D262D"/>
<stop offset="0.68" stop-color="#1D262D" stop-opacity="0.32"/>
<stop offset="1" stop-color="#1D262D" stop-opacity="0"/>
</linearGradient>
<linearGradient id="paint8_linear_312_141" x1="282.596" y1="113.881" x2="372.589" y2="293.804" gradientUnits="userSpaceOnUse">
<stop stop-color="#B4B4B4"/>
<stop offset="1" stop-color="#8E8E8E"/>
</linearGradient>
<linearGradient id="paint9_linear_312_141" x1="358.361" y1="138.703" x2="262.589" y2="210.712" gradientUnits="userSpaceOnUse">
<stop stop-color="#F9FBFC"/>
<stop offset="1" stop-color="#F9FBFC" stop-opacity="0"/>
</linearGradient>
<linearGradient id="paint10_linear_312_141" x1="372.288" y1="157.23" x2="276.515" y2="229.239" gradientUnits="userSpaceOnUse">
<stop stop-color="#F9FBFC"/>
<stop offset="1" stop-color="#F9FBFC" stop-opacity="0"/>
</linearGradient>
<linearGradient id="paint11_linear_312_141" x1="253.266" y1="310.668" x2="278.518" y2="359.213" gradientUnits="userSpaceOnUse">
<stop stop-color="#1D262D"/>
<stop offset="1" stop-color="#1D262D" stop-opacity="0"/>
</linearGradient>
</defs>
</svg>
